<?xml version="1.0" encoding="UTF-8" standalone="no"?>
<!-- Created with Inkscape (http://www.inkscape.org/) -->

<svg
   version="1.1"
   id="svg1"
   width="45.333332"
   height="20"
   viewBox="0 0 45.333332 20"
   sodipodi:docname="_form1_tmp.pdf"
   xmlns:inkscape="http://www.inkscape.org/namespaces/inkscape"
   xmlns:sodipodi="http://sodipodi.sourceforge.net/DTD/sodipodi-0.dtd"
   xmlns="http://www.w3.org/2000/svg"
   xmlns:svg="http://www.w3.org/2000/svg">
  <defs
     id="defs1" />
  <sodipodi:namedview
     id="namedview1"
     pagecolor="#ffffff"
     bordercolor="#666666"
     borderopacity="1.0"
     inkscape:showpageshadow="2"
     inkscape:pageopacity="0.0"
     inkscape:pagecheckerboard="0"
     inkscape:deskcolor="#d1d1d1">
    <inkscape:page
       x="0"
       y="0"
       inkscape:label="1"
       id="page1"
       width="45.333332"
       height="20"
       margin="0"
       bleed="0" />
  </sodipodi:namedview>
  <g
     id="g1"
     inkscape:groupmode="layer"
     inkscape:label="1">
    <g
       id="g2"
       aria-label="n!"
       transform="matrix(1.3333333,0,0,1.3333333,18.453333,7.7333333)">
      <path
         id="path2"
         d="M 0.8553125,-0.4328125 C 0.82015625,-0.35078125 0.785,-0.175 0.785,-0.1515625 c 0,0.15234375 0.1171875,0.22265625 0.234375,0.22265625 0.1289062,0 0.234375,-0.09375 0.2695312,-0.15234375 0.035156,-0.05859375 0.09375,-0.29296875 0.1289063,-0.43359375 C 1.4529687,-0.64375 1.5232812,-0.971875 1.5701562,-1.1476562 1.6053125,-1.3 1.6521875,-1.4523437 1.6873437,-1.6046875 1.769375,-1.8976562 1.7810937,-1.95625 1.9803125,-2.2375 c 0.1992187,-0.28125 0.5273437,-0.6445312 1.0429687,-0.6445312 0.4101563,0 0.4101563,0.3632812 0.4101563,0.4921875 0,0.421875 -0.2929688,1.1953125 -0.4101563,1.4882812 -0.070312,0.1875 -0.1054687,0.2578125 -0.1054687,0.375 0,0.36328125 0.3046875,0.59765625 0.6679687,0.59765625 0.6914063,0 1.0078125,-0.9609375 1.0078125,-1.06640625 0,-0.09375 -0.09375,-0.09375 -0.1171875,-0.09375 -0.09375,0 -0.1054687,0.046875 -0.1289062,0.1171875 -0.1640625,0.5625 -0.46875,0.84375 -0.7382813,0.84375 -0.1523437,0 -0.1757812,-0.09375 -0.1757812,-0.24609375 0,-0.15234375 0.035156,-0.24609375 0.1523437,-0.5625 0.09375,-0.21093745 0.375,-0.94921875 0.375,-1.34765625 0,-0.6679687 -0.5390625,-0.7851562 -0.9023437,-0.7851562 -0.5859375,0 -0.9726563,0.3515625 -1.1835938,0.6328125 -0.046875,-0.4804688 -0.4570312,-0.6328125 -0.75,-0.6328125 -0.2929687,0 -0.4570312,0.2109375 -0.5507812,0.375 -0.15234375,0.2578125 -0.24609375,0.65625 -0.24609375,0.6914062 0,0.082031 0.09375,0.082031 0.1171875,0.082031 0.09375,0 0.10546875,-0.011719 0.15234375,-0.1992188 0.10546875,-0.421875 0.234375,-0.7617187 0.515625,-0.7617187 0.1757812,0 0.2226562,0.1523437 0.2226562,0.3398437 0,0.140625 -0.058594,0.3984375 -0.1054687,0.5859375 -0.046875,0.1875 -0.1171875,0.46875 -0.1523438,0.6210938 z m 0,0"
         style="fill:#000000;fill-opacity:1;fill-rule:nonzero;stroke:none" />
      <path
         id="path3"
         d="m 6.4422266,-4.5929687 c 0,-0.2578125 -0.2109375,-0.3867188 -0.3984375,-0.3867188 -0.1992188,0 -0.3984375,0.1523438 -0.3984375,0.3867188 l 0.2695312,3.0703125 c 0.011719,0.1523437 0.035156,0.1757812 0.1289063,0.1757812 0.09375,0 0.1171875,-0.023437 0.1289062,-0.1640625 z m 0,4.1835937 c 0,-0.2109375 -0.1757813,-0.38671875 -0.3984375,-0.38671875 -0.234375,0 -0.3984375,0.1875 -0.3984375,0.38671875 0,0.24609375 0.1992187,0.41015625 0.3984375,0.41015625 0.2226562,0 0.3984375,-0.17578125 0.3984375,-0.41015625 z m 0,0"
         style="fill:#000000;fill-opacity:1;fill-rule:nonzero;stroke:none" />
    </g>
    <rect
       id="rect3"
       x="0"
       y="0"
       width="1"
       height="1"
       style="fill:#000000;fill-opacity:1;fill-rule:nonzero"
       transform="matrix(44.16,0,0,-0.64,1.1573333,9.9893333)" />
    <g
       id="g3"
       aria-label="(n−k)!·k!"
       transform="matrix(1.3333333,0,0,1.3333333,1.1733333,17.653333)">
      <path
         id="path4"
         d="m 2.4715625,-5.2273047 c -1.3242188,0.9257813 -1.67578125,2.4140625 -1.67578125,3.4804688 0,0.98437496 0.29296875,2.50781246 1.67578125,3.4804687 0.058594,0 0.140625,0 0.140625,-0.082031 0,-0.046875 -0.023437,-0.058594 -0.070312,-0.1054688 C 1.6160937,0.71410156 1.27625,-0.46949219 1.27625,-1.7468359 c 0,-1.875 0.7148437,-2.8007813 1.2890625,-3.3164063 0.023437,-0.023437 0.046875,-0.046875 0.046875,-0.082031 0,-0.082031 -0.082031,-0.082031 -0.140625,-0.082032 z m 0,0"
         style="fill:#000000;fill-opacity:1;fill-rule:nonzero;stroke:none" />
      <path
         id="path5"
         d="m 3.9744922,-0.43433594 c -0.035156,0.0820313 -0.070312,0.2578125 -0.070312,0.28125 0,0.1523437525 0.1171875,0.22265625 0.234375,0.22265625 0.1289062,0 0.234375,-0.09375 0.2695312,-0.15234375 0.035156,-0.05859375 0.09375,-0.29296875 0.1289063,-0.43359375 0.035156,-0.12890625 0.1054687,-0.45703125 0.1523437,-0.63281251 0.035156,-0.1523437 0.082031,-0.3046875 0.1171875,-0.4570312 0.082031,-0.2929688 0.09375,-0.3515625 0.2929688,-0.6328125 0.1992187,-0.28125 0.5273437,-0.6445313 1.0429687,-0.6445313 0.4101563,0 0.4101563,0.3632813 0.4101563,0.4921875 0,0.421875 -0.2929688,1.1953125 -0.4101563,1.48828126 -0.070312,0.1875 -0.1054687,0.2578125 -0.1054687,0.375 0,0.36328125 0.3046875,0.59765625 0.6679687,0.59765625 0.6914063,0 1.0078125,-0.9609375 1.0078125,-1.06640625 0,-0.09375 -0.09375,-0.09375 -0.1171875,-0.09375 -0.09375,0 -0.1054687,0.046875 -0.1289062,0.11718742 -0.1640625,0.5625 -0.46875,0.84375 -0.7382813,0.84375 -0.1523437,0 -0.1757812,-0.09375 -0.1757812,-0.24609375 0,-0.15234375 0.035156,-0.24609375 0.1523437,-0.5625 0.09375,-0.21093747 0.375,-0.94921867 0.375,-1.34765617 0,-0.6679688 -0.5390625,-0.7851563 -0.9023437,-0.7851563 -0.5859375,0 -0.9726563,0.3515625 -1.1835938,0.6328125 -0.046875,-0.4804687 -0.4570312,-0.6328125 -0.75,-0.6328125 -0.2929687,0 -0.4570312,0.2109375 -0.5507812,0.375 -0.1523438,0.2578125 -0.2460938,0.65625 -0.2460938,0.6914063 0,0.082031 0.09375,0.082031 0.1171875,0.082031 0.09375,0 0.1054688,-0.011719 0.1523438,-0.1992187 0.1054687,-0.421875 0.234375,-0.7617188 0.515625,-0.7617188 0.1757812,0 0.2226562,0.1523438 0.2226562,0.3398438 0,0.140625 -0.058594,0.3984375 -0.1054687,0.5859375 -0.046875,0.1875 -0.1171875,0.46875 -0.1523438,0.6210937 z m 0,0"
         style="fill:#000000;fill-opacity:1;fill-rule:nonzero;stroke:none" />
      <path
         id="path6"
         d="m 13.232305,-1.5710547 c 0.105468,0 0.269531,0 0.269531,-0.1757812 0,-0.1757813 -0.152344,-0.1757813 -0.269531,-0.1757813 H 9.0721484 c -0.1054687,0 -0.28125,0 -0.28125,0.1757813 0,0.1757812 0.1640625,0.1757812 0.28125,0.1757812 z m 0,0"
         style="fill:#000000;fill-opacity:1;fill-rule:nonzero;stroke:none" />
      <path
         id="path7"
         d="m 16.46082,-4.6296484 c 0.01172,-0.011719 0.03516,-0.1054688 0.03516,-0.1171875 0,-0.035156 -0.03516,-0.09375 -0.117188,-0.09375 -0.140625,0 -0.714844,0.058594 -0.890625,0.070312 -0.05859,0.011719 -0.152344,0.011719 -0.152344,0.1640625 0,0.09375 0.09375,0.09375 0.175782,0.09375 0.339843,0 0.339843,0.046875 0.339843,0.1054687 0,0.046875 -0.01172,0.09375 -0.03516,0.1523438 l -0.972656,3.94921871 c -0.03516,0.12890625 -0.03516,0.140625 -0.03516,0.15234375 0,0.10546875 0.08203,0.22265625 0.234375,0.22265625 0.1875,0 0.28125,-0.140625 0.316406,-0.29296875 0.01172,-0.0234375 0.316406,-1.25390626 0.339844,-1.34765626 0.503906,0.046875 0.902343,0.1992188 0.902343,0.5625 0,0.0351563 0,0.0703125 -0.02344,0.14062501 -0.02344,0.10546875 -0.02344,0.140625 -0.02344,0.22265625 0,0.4921875 0.398438,0.71484375 0.738282,0.71484375 0.679687,0 0.890625,-1.0546875 0.890625,-1.06640625 0,-0.09375 -0.09375,-0.09375 -0.117188,-0.09375 -0.09375,0 -0.105469,0.035156 -0.140625,0.16406242 -0.08203,0.3046875 -0.269531,0.796875 -0.609375,0.796875 -0.1875,0 -0.246094,-0.17578125 -0.246094,-0.36328125 0,-0.1171875 0,-0.12890625 0.04687,-0.3046875 0,-0.0234375 0.03516,-0.140625 0.03516,-0.22265617 0,-0.6210938 -0.84375,-0.7148438 -1.136719,-0.7382813 0.199219,-0.1289062 0.457031,-0.3515625 0.585937,-0.4570312 0.351563,-0.3398438 0.703125,-0.6679688 1.089844,-0.6679688 0.08203,0 0.175781,0.023437 0.234375,0.09375 -0.304687,0.046875 -0.363281,0.28125 -0.363281,0.3867188 0,0.1523437 0.117187,0.2578125 0.269531,0.2578125 0.199219,0 0.398438,-0.1523438 0.398438,-0.4453125 0,-0.2226563 -0.164063,-0.4804688 -0.527344,-0.4804688 -0.398438,0 -0.761719,0.28125 -1.125,0.609375 -0.292969,0.28125 -0.515625,0.4921875 -0.808594,0.609375 z m 0,0"
         style="fill:#000000;fill-opacity:1;fill-rule:nonzero;stroke:none" />
      <path
         id="path8"
         d="m 19.232305,-5.2273047 c -0.05859,0 -0.140625,0 -0.140625,0.082031 0,0.035156 0.02344,0.058594 0.07031,0.1054687 0.597656,0.5507813 1.265625,1.4882813 1.265625,3.2929688 0,1.45312496 -0.457031,2.55468746 -1.207031,3.234375 -0.117188,0.1171875 -0.128906,0.1289062 -0.128906,0.1640625 0,0.035156 0.02344,0.082031 0.09375,0.082031 0.08203,0 0.75,-0.4570312 1.207031,-1.32421874 0.304687,-0.5859375 0.503906,-1.3359375 0.503906,-2.15624996 0,-0.984375 -0.292969,-2.5078125 -1.664062,-3.4804688 z m 4.010742,0.6328125 c 0,-0.2578125 -0.210938,-0.3867187 -0.398438,-0.3867187 -0.199218,0 -0.398437,0.1523437 -0.398437,0.3867187 l 0.269531,3.0703125 c 0.01172,0.1523438 0.03516,0.1757813 0.128906,0.1757813 0.09375,0 0.117188,-0.023437 0.128907,-0.1640625 z m 0,4.18359376 c 0,-0.2109375 -0.175781,-0.38671875 -0.398438,-0.38671875 -0.234375,0 -0.398437,0.1875 -0.398437,0.38671875 0,0.24609375 0.199219,0.4101562525 0.398437,0.4101562525 0.222657,0 0.398438,-0.1757812525 0.398438,-0.4101562525 z m 0,0"
         style="fill:#000000;fill-opacity:1;fill-rule:nonzero;stroke:none" />
      <path
         id="path9"
         d="m 25.580937,-1.7468359 c 0,-0.2460938 -0.210937,-0.3984375 -0.398437,-0.3984375 -0.222656,0 -0.398438,0.1875 -0.398438,0.3984375 0,0.2460937 0.199219,0.3984375 0.398438,0.3984375 0.222656,0 0.398437,-0.1875 0.398437,-0.3984375 z m 0,0"
         style="fill:#000000;fill-opacity:1;fill-rule:nonzero;stroke:none" />
      <path
         id="path10"
         d="m 28.578008,-4.6296484 c 0.01172,-0.011719 0.03516,-0.1054688 0.03516,-0.1171875 0,-0.035156 -0.03516,-0.09375 -0.117187,-0.09375 -0.140625,0 -0.714844,0.058594 -0.890625,0.070312 -0.05859,0.011719 -0.152344,0.011719 -0.152344,0.1640625 0,0.09375 0.09375,0.09375 0.175781,0.09375 0.339844,0 0.339844,0.046875 0.339844,0.1054687 0,0.046875 -0.01172,0.09375 -0.03516,0.1523438 l -0.972657,3.94921871 c -0.03516,0.12890625 -0.03516,0.140625 -0.03516,0.15234375 0,0.10546875 0.08203,0.22265625 0.234375,0.22265625 0.1875,0 0.28125,-0.140625 0.316406,-0.29296875 0.01172,-0.0234375 0.316407,-1.25390626 0.339844,-1.34765626 0.503906,0.046875 0.902344,0.1992188 0.902344,0.5625 0,0.0351563 0,0.0703125 -0.02344,0.14062501 -0.02344,0.10546875 -0.02344,0.140625 -0.02344,0.22265625 0,0.4921875 0.398437,0.71484375 0.738281,0.71484375 0.679688,0 0.890625,-1.0546875 0.890625,-1.06640625 0,-0.09375 -0.09375,-0.09375 -0.117187,-0.09375 -0.09375,0 -0.105469,0.035156 -0.140625,0.16406242 -0.08203,0.3046875 -0.269532,0.796875 -0.609375,0.796875 -0.1875,0 -0.246094,-0.17578125 -0.246094,-0.36328125 0,-0.1171875 0,-0.12890625 0.04687,-0.3046875 0,-0.0234375 0.03516,-0.140625 0.03516,-0.22265617 0,-0.6210938 -0.84375,-0.7148438 -1.136719,-0.7382813 0.199219,-0.1289062 0.457032,-0.3515625 0.585938,-0.4570312 0.351562,-0.3398438 0.703125,-0.6679688 1.089844,-0.6679688 0.08203,0 0.175781,0.023437 0.234375,0.09375 -0.304688,0.046875 -0.363282,0.28125 -0.363282,0.3867188 0,0.1523437 0.117188,0.2578125 0.269532,0.2578125 0.199218,0 0.398437,-0.1523438 0.398437,-0.4453125 0,-0.2226563 -0.164062,-0.4804688 -0.527344,-0.4804688 -0.398437,0 -0.761718,0.28125 -1.125,0.609375 -0.292968,0.28125 -0.515625,0.4921875 -0.808593,0.609375 z m 0,0"
         style="fill:#000000;fill-opacity:1;fill-rule:nonzero;stroke:none" />
      <path
         id="path11"
         d="m 32.243047,-4.5944922 c 0,-0.2578125 -0.210938,-0.3867187 -0.398438,-0.3867187 -0.199218,0 -0.398437,0.1523437 -0.398437,0.3867187 l 0.269531,3.0703125 c 0.01172,0.1523438 0.03516,0.1757813 0.128906,0.1757813 0.09375,0 0.117188,-0.023437 0.128907,-0.1640625 z m 0,4.18359376 c 0,-0.2109375 -0.175781,-0.38671875 -0.398438,-0.38671875 -0.234375,0 -0.398437,0.1875 -0.398437,0.38671875 0,0.24609375 0.199219,0.4101562525 0.398437,0.4101562525 0.222657,0 0.398438,-0.1757812525 0.398438,-0.4101562525 z m 0,0"
         style="fill:#000000;fill-opacity:1;fill-rule:nonzero;stroke:none" />
    </g>
  </g>
</svg>
