<?xml version="1.0" encoding="UTF-8" standalone="no"?>
<!-- Created with Inkscape (http://www.inkscape.org/) -->

<svg
   version="1.1"
   id="svg1"
   width="98.666664"
   height="14.666667"
   viewBox="0 0 98.666664 14.666667"
   sodipodi:docname="_form0_tmp.pdf"
   xmlns:inkscape="http://www.inkscape.org/namespaces/inkscape"
   xmlns:sodipodi="http://sodipodi.sourceforge.net/DTD/sodipodi-0.dtd"
   xmlns="http://www.w3.org/2000/svg"
   xmlns:svg="http://www.w3.org/2000/svg">
  <defs
     id="defs1" />
  <sodipodi:namedview
     id="namedview1"
     pagecolor="#ffffff"
     bordercolor="#666666"
     borderopacity="1.0"
     inkscape:showpageshadow="2"
     inkscape:pageopacity="0.0"
     inkscape:pagecheckerboard="0"
     inkscape:deskcolor="#d1d1d1">
    <inkscape:page
       x="0"
       y="0"
       inkscape:label="1"
       id="page1"
       width="98.666664"
       height="14.666667"
       margin="0"
       bleed="0" />
  </sodipodi:namedview>
  <g
     id="g1"
     inkscape:groupmode="layer"
     inkscape:label="1">
    <g
       id="g2"
       aria-label="n!/((n−k)!∗k!)"
       transform="matrix(1.3333333,0,0,1.3333333,0.90666667,10.346667)">
      <path
         id="path2"
         d="m 0.87859375,-0.58519531 c -0.0351563,0.15234375 -0.09375,0.375 -0.09375,0.421875 0,0.1875 0.140625,0.26953125 0.29296875,0.26953125 0.1171875,0 0.2929687,-0.0703125 0.3632812,-0.26953125 0.011719,-0.0234375 0.1289063,-0.4921875 0.1875,-0.73828125 L 1.85125,-1.8039453 c 0.058594,-0.2226563 0.1171875,-0.4335938 0.1757812,-0.6679688 0.035156,-0.1640625 0.1171875,-0.4570312 0.1289063,-0.4921875 0.140625,-0.3164062 0.6679687,-1.21875 1.6171875,-1.21875 0.4453125,0 0.5390625,0.3632813 0.5390625,0.6914063 0,0.6210937 -0.4921875,1.8984375 -0.6445313,2.3320312 -0.09375,0.22265629 -0.1054687,0.33984379 -0.1054687,0.45703129 0,0.46875 0.3515625,0.80859375 0.8203125,0.80859375 0.9375,0 1.3007812,-1.45312504 1.3007812,-1.53515624 0,-0.09375 -0.082031,-0.09375 -0.1171875,-0.09375 -0.09375,0 -0.09375,0.023437 -0.1523437,0.1757812 -0.1992188,0.67968754 -0.5273438,1.24218754 -1.0078125,1.24218754 -0.1757813,0 -0.2460938,-0.10546875 -0.2460938,-0.328125 0,-0.2578125 0.09375,-0.4921875 0.1875,-0.71484374 C 4.5348437,-1.6750391 4.945,-2.7648828 4.945,-3.3391016 c 0,-0.6679687 -0.421875,-1.0664062 -1.1367188,-1.0664062 -0.9023437,0 -1.3828125,0.6445312 -1.5585937,0.8671875 -0.046875,-0.5507813 -0.4570313,-0.8671875 -0.9140625,-0.8671875 -0.45703125,0 -0.64453125,0.3867187 -0.75,0.5742187 -0.15234375,0.3398438 -0.29296875,0.9257813 -0.29296875,0.9609375 0,0.1054688 0.09375,0.1054688 0.1171875,0.1054688 0.09375,0 0.10546875,-0.011719 0.1640625,-0.234375 0.17578125,-0.703125 0.375,-1.1835938 0.72656245,-1.1835938 0.1992188,0 0.3164063,0.1289063 0.3164063,0.4570313 0,0.2109375 -0.035156,0.3164062 -0.1640625,0.8320312 z m 0,0"
         style="fill:#000000;fill-opacity:1;fill-rule:nonzero;stroke:none" />
      <path
         id="path3"
         d="m 7.523125,-2.0851953 0.3867187,-4.5351563 c 0,-0.328125 -0.2695312,-0.515625 -0.5273437,-0.515625 -0.2578125,0 -0.5273438,0.1875 -0.5273438,0.515625 l 0.3867188,4.5234375 c 0.011719,0.1523438 0.023437,0.234375 0.140625,0.234375 0.1054687,0 0.1289062,-0.046875 0.140625,-0.2226562 z m 0.3867187,1.55859374 c 0,-0.29296875 -0.234375,-0.52734374 -0.5273437,-0.52734374 -0.28125,0 -0.5273438,0.23437499 -0.5273438,0.52734374 0,0.29296875 0.2460938,0.5273437475 0.5273438,0.5273437475 0.2929687,0 0.5273437,-0.2343749975 0.5273437,-0.5273437475 z m 0,0"
         style="fill:#000000;fill-opacity:1;fill-rule:nonzero;stroke:none" />
      <path
         id="path4"
         d="m 13.130547,-7.0891016 c 0.04687,-0.1289062 0.04687,-0.1757812 0.04687,-0.1875 0,-0.1054687 -0.08203,-0.1992187 -0.199219,-0.1992187 -0.07031,0 -0.128906,0.035156 -0.164062,0.09375 L 9.3571094,2.1101172 c -0.046875,0.1289062 -0.046875,0.1757812 -0.046875,0.1875 0,0.1054687 0.082031,0.1992187 0.1992187,0.1992187 0.1289063,0 0.1523438,-0.070312 0.2109375,-0.2460937 z m 0,0"
         style="fill:#000000;fill-opacity:1;fill-rule:nonzero;stroke:none" />
      <path
         id="path5"
         d="m 17.094414,2.3913672 c 0,-0.035156 0,-0.046875 -0.164062,-0.2226563 -1.242188,-1.25390621 -1.570313,-3.12890621 -1.570313,-4.6640625 0,-1.7226562 0.386719,-3.4570312 1.605469,-4.7109375 0.128906,-0.1171875 0.128906,-0.1289062 0.128906,-0.1640625 0,-0.070312 -0.03516,-0.1054687 -0.09375,-0.1054687 -0.105469,0 -0.996094,0.6796875 -1.582031,1.9453125 -0.515625,1.1015625 -0.632813,2.203125 -0.632813,3.0351562 0,0.7851563 0.117188,1.99218754 0.65625,3.11718754 0.597657,1.21874996 1.453125,1.87499996 1.558594,1.87499996 0.05859,0 0.09375,-0.035156 0.09375,-0.1054687 z m 3.837891,0 c 0,-0.035156 0,-0.046875 -0.164063,-0.2226563 -1.242187,-1.25390621 -1.570312,-3.12890621 -1.570312,-4.6640625 0,-1.7226562 0.386718,-3.4570312 1.605468,-4.7109375 0.128907,-0.1171875 0.128907,-0.1289062 0.128907,-0.1640625 0,-0.070312 -0.03516,-0.1054687 -0.09375,-0.1054687 -0.105469,0 -0.996094,0.6796875 -1.582032,1.9453125 -0.515625,1.1015625 -0.632812,2.203125 -0.632812,3.0351562 0,0.7851563 0.117187,1.99218754 0.65625,3.11718754 0.597656,1.21874996 1.453125,1.87499996 1.558594,1.87499996 0.05859,0 0.09375,-0.035156 0.09375,-0.1054687 z m 0,0"
         style="fill:#000000;fill-opacity:1;fill-rule:nonzero;stroke:none" />
      <path
         id="path6"
         d="m 22.359062,-0.58519531 c -0.03516,0.15234375 -0.09375,0.375 -0.09375,0.421875 0,0.1875 0.140625,0.26953125 0.292969,0.26953125 0.117188,0 0.292969,-0.0703125 0.363281,-0.26953125 0.01172,-0.0234375 0.128907,-0.4921875 0.1875,-0.73828125 l 0.222657,-0.90234374 c 0.05859,-0.2226563 0.117187,-0.4335938 0.175781,-0.6679688 0.03516,-0.1640625 0.117187,-0.4570312 0.128906,-0.4921875 0.140625,-0.3164062 0.667969,-1.21875 1.617188,-1.21875 0.445312,0 0.539062,0.3632813 0.539062,0.6914063 0,0.6210937 -0.492187,1.8984375 -0.644531,2.3320312 -0.09375,0.22265629 -0.105469,0.33984379 -0.105469,0.45703129 0,0.46875 0.351563,0.80859375 0.820313,0.80859375 0.9375,0 1.300781,-1.45312504 1.300781,-1.53515624 0,-0.09375 -0.08203,-0.09375 -0.117188,-0.09375 -0.09375,0 -0.09375,0.023437 -0.152343,0.1757812 -0.199219,0.67968754 -0.527344,1.24218754 -1.007813,1.24218754 -0.175781,0 -0.246094,-0.10546875 -0.246094,-0.328125 0,-0.2578125 0.09375,-0.4921875 0.1875,-0.71484374 0.1875,-0.5273438 0.597657,-1.6171875 0.597657,-2.1914063 0,-0.6679687 -0.421875,-1.0664062 -1.136719,-1.0664062 -0.902344,0 -1.382813,0.6445312 -1.558594,0.8671875 -0.04687,-0.5507813 -0.457031,-0.8671875 -0.914062,-0.8671875 -0.457032,0 -0.644532,0.3867187 -0.75,0.5742187 -0.152344,0.3398438 -0.292969,0.9257813 -0.292969,0.9609375 0,0.1054688 0.09375,0.1054688 0.117187,0.1054688 0.09375,0 0.105469,-0.011719 0.164063,-0.234375 0.175781,-0.703125 0.375,-1.1835938 0.726562,-1.1835938 0.199219,0 0.316407,0.1289063 0.316407,0.4570313 0,0.2109375 -0.03516,0.3164062 -0.164063,0.8320312 z m 0,0"
         style="fill:#000000;fill-opacity:1;fill-rule:nonzero;stroke:none" />
      <path
         id="path7"
         d="m 36.321953,-2.2961328 c 0.175781,0 0.351563,0 0.351563,-0.1992188 0,-0.1992187 -0.175782,-0.1992187 -0.351563,-0.1992187 h -5.390625 c -0.164062,0 -0.339844,0 -0.339844,0.1992187 0,0.1992188 0.175782,0.1992188 0.339844,0.1992188 z m 0,0"
         style="fill:#000000;fill-opacity:1;fill-rule:nonzero;stroke:none" />
      <path
         id="path8"
         d="m 42.579766,-6.8078516 c 0,0 0,-0.1054687 -0.128907,-0.1054687 -0.234375,0 -0.960937,0.082031 -1.21875,0.1054687 -0.08203,0 -0.1875,0.011719 -0.1875,0.1992188 0,0.1171875 0.09375,0.1171875 0.234375,0.1171875 0.480469,0 0.503907,0.070312 0.503907,0.1640625 l -0.03516,0.1992187 -1.441406,5.74218754 c -0.03516,0.140625 -0.03516,0.15234375 -0.03516,0.22265625 0,0.22265625 0.199219,0.26953125 0.28125,0.26953125 0.128906,0 0.28125,-0.08203125 0.339844,-0.2109375 0.05859,-0.0820313 0.503906,-1.92187504 0.5625,-2.17968754 0.339843,0.035156 1.160156,0.1875 1.160156,0.8554688 0,0.070312 0,0.1054687 -0.03516,0.1992187 -0.02344,0.1289063 -0.03516,0.24609379 -0.03516,0.35156254 0,0.5859375 0.398438,0.984375 0.914063,0.984375 0.292969,0 0.5625,-0.15234375 0.785156,-0.52734375 0.246094,-0.43359375 0.363281,-0.98437499 0.363281,-1.00781249 0,-0.09375 -0.09375,-0.09375 -0.128906,-0.09375 -0.09375,0 -0.105469,0.035156 -0.140625,0.1757812 -0.199219,0.72656254 -0.421875,1.24218754 -0.867187,1.24218754 -0.1875,0 -0.316407,-0.1171875 -0.316407,-0.46875 0,-0.17578125 0.04687,-0.3984375 0.08203,-0.56250004 0.03516,-0.1640625 0.03516,-0.2109375 0.03516,-0.3046875 0,-0.65625 -0.621094,-0.9375 -1.464844,-1.0546875 0.304688,-0.1757812 0.621094,-0.4921875 0.855469,-0.7265625 0.480469,-0.5273437 0.9375,-0.9609375 1.417969,-0.9609375 0.05859,0 0.07031,0 0.09375,0.011719 0.117187,0.023437 0.128906,0.023437 0.210937,0.082031 0.02344,0 0.02344,0.011719 0.03516,0.035156 -0.480468,0.035156 -0.5625,0.421875 -0.5625,0.5390625 0,0.1640625 0.105469,0.3515625 0.375,0.3515625 0.257813,0 0.550782,-0.2226563 0.550782,-0.609375 0,-0.3046875 -0.234375,-0.6328125 -0.679688,-0.6328125 -0.28125,0 -0.738281,0.082031 -1.453125,0.8789062 -0.339844,0.375 -0.726562,0.7734375 -1.101562,0.9257813 z m 0,0"
         style="fill:#000000;fill-opacity:1;fill-rule:nonzero;stroke:none" />
      <path
         id="path9"
         d="m 48.122734,-2.4953516 c 0,-0.7734375 -0.117187,-1.9804687 -0.65625,-3.1054687 -0.597656,-1.21875 -1.464843,-1.875 -1.558593,-1.875 -0.05859,0 -0.105469,0.046875 -0.105469,0.1054687 0,0.035156 0,0.046875 0.199219,0.234375 0.972656,0.984375 1.535156,2.5664063 1.535156,4.640625 0,1.71093754 -0.363281,3.45703129 -1.59375,4.7226563 -0.140625,0.1171875 -0.140625,0.1289062 -0.140625,0.1640625 0,0.058594 0.04687,0.1054687 0.105469,0.1054687 0.09375,0 0.996093,-0.6796875 1.582031,-1.94531246 0.503906,-1.1015625 0.632812,-2.20312504 0.632812,-3.04687504 z m 2.481446,0.4101563 0.386718,-4.5351563 c 0,-0.328125 -0.269531,-0.515625 -0.527343,-0.515625 -0.257813,0 -0.527344,0.1875 -0.527344,0.515625 l 0.386719,4.5234375 c 0.01172,0.1523438 0.02344,0.234375 0.140625,0.234375 0.105468,0 0.128906,-0.046875 0.140625,-0.2226562 z m 0.386718,1.55859374 c 0,-0.29296875 -0.234375,-0.52734374 -0.527343,-0.52734374 -0.28125,0 -0.527344,0.23437499 -0.527344,0.52734374 0,0.29296875 0.246094,0.5273437475 0.527344,0.5273437475 0.292968,0 0.527343,-0.2343749975 0.527343,-0.5273437475 z m 0,0"
         style="fill:#000000;fill-opacity:1;fill-rule:nonzero;stroke:none" />
      <path
         id="path10"
         d="m 56.741875,-4.2531641 c 0.01172,-0.140625 0.01172,-0.375 -0.246094,-0.375 -0.164062,0 -0.292969,0.1289063 -0.269531,0.2578125 v 0.1289063 l 0.140625,1.546875 -1.265625,-0.9257813 c -0.09375,-0.058594 -0.117188,-0.070312 -0.1875,-0.070312 -0.140625,0 -0.269531,0.140625 -0.269531,0.2695313 0,0.1640625 0.105468,0.1992187 0.199218,0.2578125 l 1.417969,0.6679687 -1.371094,0.6679688 c -0.164062,0.082031 -0.246093,0.1289062 -0.246093,0.2695312 0,0.1523438 0.128906,0.28125 0.269531,0.28125 0.07031,0 0.09375,0 0.339844,-0.1875 l 1.113281,-0.8085937 -0.140625,1.67578124 c 0,0.2109375 0.175781,0.2578125 0.257812,0.2578125 0.117188,0 0.269532,-0.0703125 0.269532,-0.2578125 l -0.152344,-1.67578124 1.277344,0.9257812 c 0.08203,0.046875 0.105468,0.070312 0.175781,0.070312 0.140625,0 0.269531,-0.140625 0.269531,-0.28125 0,-0.140625 -0.09375,-0.1992187 -0.210937,-0.2578125 -0.597657,-0.2929687 -0.621094,-0.2929687 -1.40625,-0.6679687 l 1.382812,-0.6679688 c 0.152344,-0.070312 0.234375,-0.1171875 0.234375,-0.2695312 0,-0.140625 -0.128906,-0.2695313 -0.269531,-0.2695313 -0.07031,0 -0.09375,0 -0.339844,0.1875 l -1.113281,0.8085938 z m 0,0"
         style="fill:#000000;fill-opacity:1;fill-rule:nonzero;stroke:none" />
      <path
         id="path11"
         d="m 64.060234,-6.8078516 c 0,0 0,-0.1054687 -0.128906,-0.1054687 -0.234375,0 -0.960937,0.082031 -1.21875,0.1054687 -0.08203,0 -0.1875,0.011719 -0.1875,0.1992188 0,0.1171875 0.09375,0.1171875 0.234375,0.1171875 0.480469,0 0.503906,0.070312 0.503906,0.1640625 l -0.03516,0.1992187 -1.441406,5.74218754 c -0.03516,0.140625 -0.03516,0.15234375 -0.03516,0.22265625 0,0.22265625 0.199218,0.26953125 0.28125,0.26953125 0.128906,0 0.28125,-0.08203125 0.339843,-0.2109375 0.05859,-0.0820313 0.503907,-1.92187504 0.5625,-2.17968754 0.339844,0.035156 1.160157,0.1875 1.160157,0.8554688 0,0.070312 0,0.1054687 -0.03516,0.1992187 -0.02344,0.1289063 -0.03516,0.24609379 -0.03516,0.35156254 0,0.5859375 0.398438,0.984375 0.914063,0.984375 0.292968,0 0.5625,-0.15234375 0.785156,-0.52734375 0.246094,-0.43359375 0.363281,-0.98437499 0.363281,-1.00781249 0,-0.09375 -0.09375,-0.09375 -0.128906,-0.09375 -0.09375,0 -0.105469,0.035156 -0.140625,0.1757812 -0.199219,0.72656254 -0.421875,1.24218754 -0.867188,1.24218754 -0.1875,0 -0.316406,-0.1171875 -0.316406,-0.46875 0,-0.17578125 0.04687,-0.3984375 0.08203,-0.56250004 0.03516,-0.1640625 0.03516,-0.2109375 0.03516,-0.3046875 0,-0.65625 -0.621094,-0.9375 -1.464844,-1.0546875 0.304687,-0.1757812 0.621094,-0.4921875 0.855469,-0.7265625 0.480468,-0.5273437 0.9375,-0.9609375 1.417968,-0.9609375 0.05859,0 0.07031,0 0.09375,0.011719 0.117188,0.023437 0.128907,0.023437 0.210938,0.082031 0.02344,0 0.02344,0.011719 0.03516,0.035156 -0.480469,0.035156 -0.5625,0.421875 -0.5625,0.5390625 0,0.1640625 0.105469,0.3515625 0.375,0.3515625 0.257813,0 0.550781,-0.2226563 0.550781,-0.609375 0,-0.3046875 -0.234375,-0.6328125 -0.679687,-0.6328125 -0.28125,0 -0.738281,0.082031 -1.453125,0.8789062 -0.339844,0.375 -0.726563,0.7734375 -1.101563,0.9257813 z m 0,0"
         style="fill:#000000;fill-opacity:1;fill-rule:nonzero;stroke:none" />
      <path
         id="path12"
         d="m 68.243828,-2.0851953 0.386719,-4.5351563 c 0,-0.328125 -0.269531,-0.515625 -0.527344,-0.515625 -0.257812,0 -0.527344,0.1875 -0.527344,0.515625 l 0.386719,4.5234375 c 0.01172,0.1523438 0.02344,0.234375 0.140625,0.234375 0.105469,0 0.128906,-0.046875 0.140625,-0.2226562 z m 0.386719,1.55859374 c 0,-0.29296875 -0.234375,-0.52734374 -0.527344,-0.52734374 -0.28125,0 -0.527344,0.23437499 -0.527344,0.52734374 0,0.29296875 0.246094,0.5273437475 0.527344,0.5273437475 0.292969,0 0.527344,-0.2343749975 0.527344,-0.5273437475 z m 3.732422,-1.96875004 c 0,-0.7734375 -0.117188,-1.9804687 -0.65625,-3.1054687 -0.597657,-1.21875 -1.464844,-1.875 -1.558594,-1.875 -0.05859,0 -0.105469,0.046875 -0.105469,0.1054687 0,0.035156 0,0.046875 0.199219,0.234375 0.972656,0.984375 1.535156,2.5664063 1.535156,4.640625 0,1.71093754 -0.363281,3.45703129 -1.59375,4.7226563 -0.140625,0.1171875 -0.140625,0.1289062 -0.140625,0.1640625 0,0.058594 0.04687,0.1054687 0.105469,0.1054687 0.09375,0 0.996094,-0.6796875 1.582031,-1.94531246 0.503906,-1.1015625 0.632813,-2.20312504 0.632813,-3.04687504 z m 0,0"
         style="fill:#000000;fill-opacity:1;fill-rule:nonzero;stroke:none" />
    </g>
  </g>
</svg>
